<svg width="32" height="32" viewBox="0 0 32 32" fill="none" xmlns="http://www.w3.org/2000/svg">
<path d="M8.32426 19.1707C8.32426 20.5656 7.16143 21.693 5.72268 21.693C4.28392 21.693 3.12109 20.5656 3.12109 19.1707C3.12109 17.7758 4.28392 16.6484 5.72268 16.6484H8.32426V19.1707ZM9.62505 19.1707C9.62505 17.7758 10.7879 16.6484 12.2266 16.6484C13.6654 16.6484 14.8282 17.7758 14.8282 19.1707V25.4764C14.8282 26.8713 13.6654 27.9986 12.2266 27.9986C10.7879 27.9986 9.62505 26.8713 9.62505 25.4764V19.1707Z" fill="#F43772"/>
<path d="M12.2219 9.04453C10.7832 9.04453 9.62035 7.91716 9.62035 6.52227C9.62035 5.12738 10.7832 4 12.2219 4C13.6607 4 14.8235 5.12738 14.8235 6.52227V9.04453H12.2219ZM12.2219 10.3248C13.6607 10.3248 14.8235 11.4522 14.8235 12.847C14.8235 14.2419 13.6607 15.3693 12.2219 15.3693H5.69826C4.25951 15.3693 3.09668 14.2419 3.09668 12.847C3.09668 11.4522 4.25951 10.3248 5.69826 10.3248H12.2219Z" fill="#56D1F6"/>
<path d="M22.649 12.847C22.649 11.4522 23.8118 10.3248 25.2506 10.3248C26.6893 10.3248 27.8521 11.4522 27.8521 12.847C27.8521 14.2419 26.6893 15.3693 25.2506 15.3693H22.649V12.847ZM21.3482 12.847C21.3482 14.2419 20.1854 15.3693 18.7466 15.3693C17.3078 15.3693 16.145 14.2419 16.145 12.847V6.52227C16.145 5.12738 17.3078 4 18.7466 4C20.1854 4 21.3482 5.12738 21.3482 6.52227V12.847V12.847Z" fill="#2FD08D"/>
<path d="M18.7466 22.9541C20.1854 22.9541 21.3482 24.0815 21.3482 25.4764C21.3482 26.8713 20.1854 27.9986 18.7466 27.9986C17.3078 27.9986 16.145 26.8713 16.145 25.4764V22.9541H18.7466ZM18.7466 21.693C17.3078 21.693 16.145 20.5656 16.145 19.1707C16.145 17.7758 17.3078 16.6484 18.7466 16.6484H25.2703C26.709 16.6484 27.8719 17.7758 27.8719 19.1707C27.8719 20.5656 26.709 21.693 25.2703 21.693H18.7466Z" fill="#FBBA27"/>
</svg>
